<svg width="183" height="32" viewBox="0 0 183 32" fill="none" xmlns="http://www.w3.org/2000/svg">
<g clip-path="url(#clip0_1_2808)">
<path d="M27 13.7945C27 10.4069 23.9805 7.65088 20.2692 7.65088C17.477 7.65088 14.9939 9.24486 14.0001 11.5585C13.0061 9.24486 10.5229 7.65088 7.7308 7.65088C4.0195 7.65088 1 10.4069 1 13.7945C1 16.3399 2.68274 18.5614 5.20052 19.4851C2.68274 20.4088 1 22.6303 1 25.1757C1 28.5633 4.0195 31.3193 7.7308 31.3193C10.5229 31.3193 13.0061 29.7253 14.0001 27.4116C14.9939 29.7253 17.477 31.3193 20.2692 31.3193C23.9805 31.3193 27 28.5633 27 25.1757C27 22.6303 25.3173 20.4088 22.7995 19.4851C25.3173 18.5614 27 16.3399 27 13.7945ZM21.6496 19.197C21.5029 19.2279 21.3989 19.3476 21.3989 19.4851C21.3989 19.6226 21.5029 19.7422 21.6496 19.7731C24.4181 20.3605 26.3517 22.582 26.3517 25.1757C26.3517 28.2371 23.6231 30.7276 20.2692 30.7276C17.4067 30.7276 14.9035 28.8739 14.3173 26.3201C14.2859 26.1831 14.1534 26.0849 14.0001 26.0849C13.8467 26.0849 13.7142 26.1831 13.6829 26.3201C13.0965 28.8739 10.5933 30.7276 7.7308 30.7276C4.37687 30.7276 1.64828 28.2371 1.64828 25.1757C1.64828 22.582 3.58188 20.3605 6.35036 19.7731C6.49707 19.7422 6.60106 19.6226 6.60106 19.4851C6.60106 19.3476 6.49707 19.2279 6.35036 19.197C3.58188 18.6096 1.64828 16.3881 1.64828 13.7945C1.64828 10.7331 4.37687 8.24259 7.7308 8.24259C10.5933 8.24259 13.0965 10.0963 13.6829 12.6501C13.7142 12.787 13.8467 12.8853 14.0001 12.8853C14.1534 12.8853 14.2859 12.787 14.3173 12.6501C14.9035 10.0963 17.4067 8.24259 20.2692 8.24259C23.6231 8.24259 26.3517 10.7331 26.3517 13.7945C26.3517 16.3881 24.4181 18.6096 21.6496 19.197Z" fill="#3DB370"/>
<mask id="mask0_1_2808" style="mask-type:luminance" maskUnits="userSpaceOnUse" x="0" y="6" width="28" height="27">
<path d="M28 6.65088H0V32.6509H28V6.65088Z" fill="white"/>
<path d="M27 13.7945C27 10.4069 23.9805 7.65088 20.2692 7.65088C17.477 7.65088 14.9939 9.24486 14.0001 11.5585C13.0061 9.24486 10.5229 7.65088 7.7308 7.65088C4.0195 7.65088 1 10.4069 1 13.7945C1 16.3399 2.68274 18.5614 5.20052 19.4851C2.68274 20.4088 1 22.6303 1 25.1757C1 28.5633 4.0195 31.3193 7.7308 31.3193C10.5229 31.3193 13.0061 29.7253 14.0001 27.4116C14.9939 29.7253 17.477 31.3193 20.2692 31.3193C23.9805 31.3193 27 28.5633 27 25.1757C27 22.6303 25.3173 20.4088 22.7995 19.4851C25.3173 18.5614 27 16.3399 27 13.7945ZM21.6496 19.197C21.5029 19.2279 21.3989 19.3476 21.3989 19.4851C21.3989 19.6226 21.5029 19.7422 21.6496 19.7731C24.4181 20.3605 26.3517 22.582 26.3517 25.1757C26.3517 28.2371 23.6231 30.7276 20.2692 30.7276C17.4067 30.7276 14.9035 28.8739 14.3173 26.3201C14.2859 26.1831 14.1534 26.0849 14.0001 26.0849C13.8467 26.0849 13.7142 26.1831 13.6829 26.3201C13.0965 28.8739 10.5933 30.7276 7.7308 30.7276C4.37687 30.7276 1.64828 28.2371 1.64828 25.1757C1.64828 22.582 3.58188 20.3605 6.35036 19.7731C6.49707 19.7422 6.60106 19.6226 6.60106 19.4851C6.60106 19.3476 6.49707 19.2279 6.35036 19.197C3.58188 18.6096 1.64828 16.3881 1.64828 13.7945C1.64828 10.7331 4.37687 8.24259 7.7308 8.24259C10.5933 8.24259 13.0965 10.0963 13.6829 12.6501C13.7142 12.787 13.8467 12.8853 14.0001 12.8853C14.1534 12.8853 14.2859 12.787 14.3173 12.6501C14.9035 10.0963 17.4067 8.24259 20.2692 8.24259C23.6231 8.24259 26.3517 10.7331 26.3517 13.7945C26.3517 16.3881 24.4181 18.6096 21.6496 19.197Z" fill="black"/>
</mask>
<g mask="url(#mask0_1_2808)">
<path d="M27 13.7945C27 10.4069 23.9805 7.65088 20.2692 7.65088C17.477 7.65088 14.9939 9.24486 14.0001 11.5585C13.0061 9.24486 10.5229 7.65088 7.7308 7.65088C4.0195 7.65088 1 10.4069 1 13.7945C1 16.3399 2.68274 18.5614 5.20052 19.4851C2.68274 20.4088 1 22.6303 1 25.1757C1 28.5633 4.0195 31.3193 7.7308 31.3193C10.5229 31.3193 13.0061 29.7253 14.0001 27.4116C14.9939 29.7253 17.477 31.3193 20.2692 31.3193C23.9805 31.3193 27 28.5633 27 25.1757C27 22.6303 25.3173 20.4088 22.7995 19.4851C25.3173 18.5614 27 16.3399 27 13.7945ZM21.6496 19.197C21.5029 19.2279 21.3989 19.3476 21.3989 19.4851C21.3989 19.6226 21.5029 19.7422 21.6496 19.7731C24.4181 20.3605 26.3517 22.582 26.3517 25.1757C26.3517 28.2371 23.6231 30.7276 20.2692 30.7276C17.4067 30.7276 14.9035 28.8739 14.3173 26.3201C14.2859 26.1831 14.1534 26.0849 14.0001 26.0849C13.8467 26.0849 13.7142 26.1831 13.6829 26.3201C13.0965 28.8739 10.5933 30.7276 7.7308 30.7276C4.37687 30.7276 1.64828 28.2371 1.64828 25.1757C1.64828 22.582 3.58188 20.3605 6.35036 19.7731C6.49707 19.7422 6.60106 19.6226 6.60106 19.4851C6.60106 19.3476 6.49707 19.2279 6.35036 19.197C3.58188 18.6096 1.64828 16.3881 1.64828 13.7945C1.64828 10.7331 4.37687 8.24259 7.7308 8.24259C10.5933 8.24259 13.0965 10.0963 13.6829 12.6501C13.7142 12.787 13.8467 12.8853 14.0001 12.8853C14.1534 12.8853 14.2859 12.787 14.3173 12.6501C14.9035 10.0963 17.4067 8.24259 20.2692 8.24259C23.6231 8.24259 26.3517 10.7331 26.3517 13.7945C26.3517 16.3881 24.4181 18.6096 21.6496 19.197Z" stroke="#3DB370"/>
</g>
</g>
<path d="M49.456 26.24C48.24 26.24 47.112 26.024 46.072 25.592C45.048 25.144 44.152 24.528 43.384 23.744C42.616 22.944 42.024 22.024 41.608 20.984C41.192 19.928 40.984 18.8 40.984 17.6C40.984 16.4 41.192 15.28 41.608 14.24C42.024 13.184 42.616 12.264 43.384 11.48C44.152 10.696 45.048 10.08 46.072 9.632C47.112 9.184 48.24 8.96 49.456 8.96C50.816 8.96 51.992 9.184 52.984 9.632C53.976 10.08 54.856 10.688 55.624 11.456L53.752 13.328C53.256 12.784 52.648 12.36 51.928 12.056C51.224 11.752 50.4 11.6 49.456 11.6C48.624 11.6 47.864 11.744 47.176 12.032C46.488 12.32 45.888 12.736 45.376 13.28C44.88 13.808 44.496 14.44 44.224 15.176C43.952 15.912 43.816 16.72 43.816 17.6C43.816 18.48 43.952 19.288 44.224 20.024C44.496 20.76 44.88 21.4 45.376 21.944C45.888 22.472 46.488 22.88 47.176 23.168C47.864 23.456 48.624 23.6 49.456 23.6C50.48 23.6 51.344 23.448 52.048 23.144C52.768 22.824 53.376 22.392 53.872 21.848L55.744 23.72C54.976 24.504 54.072 25.12 53.032 25.568C51.992 26.016 50.8 26.24 49.456 26.24ZM62.3193 26.24C61.2793 26.24 60.3353 25.976 59.4873 25.448C58.6553 24.92 57.9913 24.208 57.4953 23.312C57.0153 22.4 56.7753 21.384 56.7753 20.264C56.7753 19.128 57.0153 18.112 57.4953 17.216C57.9913 16.304 58.6553 15.584 59.4873 15.056C60.3353 14.512 61.2793 14.24 62.3193 14.24C63.1993 14.24 63.9753 14.432 64.6473 14.816C65.3353 15.184 65.8793 15.696 66.2793 16.352C66.6793 17.008 66.8793 17.752 66.8793 18.584V21.896C66.8793 22.728 66.6793 23.472 66.2793 24.128C65.8953 24.784 65.3593 25.304 64.6713 25.688C63.9833 26.056 63.1993 26.24 62.3193 26.24ZM62.7513 23.744C63.7273 23.744 64.5113 23.416 65.1033 22.76C65.7113 22.104 66.0153 21.264 66.0153 20.24C66.0153 19.552 65.8793 18.944 65.6073 18.416C65.3353 17.888 64.9513 17.48 64.4553 17.192C63.9753 16.888 63.4073 16.736 62.7513 16.736C62.1113 16.736 61.5433 16.888 61.0473 17.192C60.5673 17.48 60.1833 17.888 59.8953 18.416C59.6233 18.944 59.4873 19.552 59.4873 20.24C59.4873 20.928 59.6233 21.536 59.8953 22.064C60.1833 22.592 60.5673 23.008 61.0473 23.312C61.5433 23.6 62.1113 23.744 62.7513 23.744ZM65.8473 26V22.904L66.3033 20.096L65.8473 17.312V14.48H68.4873V26H65.8473ZM71.4171 26V14.48H74.0571V26H71.4171ZM74.0571 19.592L73.1451 19.136C73.1451 17.68 73.4651 16.504 74.1051 15.608C74.7611 14.696 75.7451 14.24 77.0571 14.24C77.6331 14.24 78.1531 14.344 78.6171 14.552C79.0811 14.76 79.5131 15.096 79.9131 15.56L78.1851 17.336C77.9771 17.112 77.7451 16.952 77.4891 16.856C77.2331 16.76 76.9371 16.712 76.6011 16.712C75.8651 16.712 75.2571 16.944 74.7771 17.408C74.2971 17.872 74.0571 18.6 74.0571 19.592ZM86.191 26.24C85.039 26.24 83.999 25.984 83.071 25.472C82.159 24.944 81.431 24.224 80.887 23.312C80.359 22.4 80.095 21.376 80.095 20.24C80.095 19.104 80.359 18.088 80.887 17.192C81.415 16.28 82.127 15.56 83.023 15.032C83.935 14.504 84.943 14.24 86.047 14.24C87.119 14.24 88.063 14.488 88.879 14.984C89.711 15.48 90.359 16.16 90.823 17.024C91.303 17.888 91.543 18.872 91.543 19.976C91.543 20.168 91.527 20.368 91.495 20.576C91.479 20.768 91.447 20.984 91.399 21.224H81.943V19.064H90.031L89.047 19.928C89.015 19.224 88.879 18.632 88.639 18.152C88.399 17.672 88.055 17.304 87.607 17.048C87.175 16.792 86.639 16.664 85.999 16.664C85.327 16.664 84.743 16.808 84.247 17.096C83.751 17.384 83.367 17.792 83.095 18.32C82.823 18.832 82.687 19.448 82.687 20.168C82.687 20.888 82.831 21.52 83.119 22.064C83.407 22.608 83.815 23.032 84.343 23.336C84.871 23.624 85.479 23.768 86.167 23.768C86.759 23.768 87.303 23.664 87.799 23.456C88.311 23.248 88.743 22.944 89.095 22.544L90.775 24.248C90.215 24.904 89.535 25.4 88.735 25.736C87.935 26.072 87.087 26.24 86.191 26.24ZM99.0113 26.24C97.8593 26.24 96.8193 25.984 95.8913 25.472C94.9793 24.944 94.2513 24.224 93.7073 23.312C93.1793 22.4 92.9153 21.376 92.9153 20.24C92.9153 19.104 93.1793 18.088 93.7073 17.192C94.2353 16.28 94.9473 15.56 95.8433 15.032C96.7553 14.504 97.7633 14.24 98.8673 14.24C99.9393 14.24 100.883 14.488 101.699 14.984C102.531 15.48 103.179 16.16 103.643 17.024C104.123 17.888 104.363 18.872 104.363 19.976C104.363 20.168 104.347 20.368 104.315 20.576C104.299 20.768 104.267 20.984 104.219 21.224H94.7633V19.064H102.851L101.867 19.928C101.835 19.224 101.699 18.632 101.459 18.152C101.219 17.672 100.875 17.304 100.427 17.048C99.9953 16.792 99.4593 16.664 98.8193 16.664C98.1473 16.664 97.5633 16.808 97.0673 17.096C96.5713 17.384 96.1873 17.792 95.9153 18.32C95.6433 18.832 95.5073 19.448 95.5073 20.168C95.5073 20.888 95.6513 21.52 95.9393 22.064C96.2273 22.608 96.6353 23.032 97.1633 23.336C97.6913 23.624 98.2993 23.768 98.9873 23.768C99.5793 23.768 100.123 23.664 100.619 23.456C101.131 23.248 101.563 22.944 101.915 22.544L103.595 24.248C103.035 24.904 102.355 25.4 101.555 25.736C100.755 26.072 99.9073 26.24 99.0113 26.24ZM106.48 26V14.48H109.12V26H106.48ZM109.12 19.592L108.208 19.136C108.208 17.68 108.528 16.504 109.168 15.608C109.824 14.696 110.808 14.24 112.12 14.24C112.696 14.24 113.216 14.344 113.68 14.552C114.144 14.76 114.576 15.096 114.976 15.56L113.248 17.336C113.04 17.112 112.808 16.952 112.552 16.856C112.296 16.76 112 16.712 111.664 16.712C110.928 16.712 110.32 16.944 109.84 17.408C109.36 17.872 109.12 18.6 109.12 19.592Z" fill="white"/>
<path d="M118.931 18.872V16.592H123.179C124.027 16.592 124.683 16.376 125.147 15.944C125.627 15.496 125.867 14.88 125.867 14.096C125.867 13.392 125.635 12.8 125.171 12.32C124.707 11.84 124.051 11.6 123.203 11.6H118.931V9.2H123.323C124.379 9.2 125.307 9.416 126.107 9.848C126.907 10.264 127.523 10.84 127.955 11.576C128.403 12.296 128.627 13.12 128.627 14.048C128.627 15.024 128.403 15.872 127.955 16.592C127.523 17.312 126.907 17.872 126.107 18.272C125.307 18.672 124.379 18.872 123.323 18.872H118.931ZM117.035 26V9.2H119.795V26H117.035ZM126.251 26L120.371 18.704L122.939 17.768L129.731 26H126.251ZM136.418 26.24C135.266 26.24 134.226 25.984 133.298 25.472C132.386 24.944 131.658 24.224 131.114 23.312C130.586 22.4 130.322 21.376 130.322 20.24C130.322 19.104 130.586 18.088 131.114 17.192C131.642 16.28 132.354 15.56 133.25 15.032C134.162 14.504 135.17 14.24 136.274 14.24C137.346 14.24 138.29 14.488 139.106 14.984C139.938 15.48 140.586 16.16 141.05 17.024C141.53 17.888 141.77 18.872 141.77 19.976C141.77 20.168 141.754 20.368 141.722 20.576C141.706 20.768 141.674 20.984 141.626 21.224H132.17V19.064H140.258L139.274 19.928C139.242 19.224 139.106 18.632 138.866 18.152C138.626 17.672 138.282 17.304 137.834 17.048C137.402 16.792 136.866 16.664 136.226 16.664C135.554 16.664 134.97 16.808 134.474 17.096C133.978 17.384 133.594 17.792 133.322 18.32C133.05 18.832 132.914 19.448 132.914 20.168C132.914 20.888 133.058 21.52 133.346 22.064C133.634 22.608 134.042 23.032 134.57 23.336C135.098 23.624 135.706 23.768 136.394 23.768C136.986 23.768 137.53 23.664 138.026 23.456C138.538 23.248 138.97 22.944 139.322 22.544L141.002 24.248C140.442 24.904 139.762 25.4 138.962 25.736C138.162 26.072 137.314 26.24 136.418 26.24ZM148.71 26.24C147.67 26.24 146.726 25.976 145.878 25.448C145.046 24.92 144.382 24.208 143.886 23.312C143.406 22.4 143.166 21.384 143.166 20.264C143.166 19.128 143.406 18.112 143.886 17.216C144.382 16.304 145.046 15.584 145.878 15.056C146.726 14.512 147.67 14.24 148.71 14.24C149.59 14.24 150.366 14.432 151.038 14.816C151.726 15.184 152.27 15.696 152.67 16.352C153.07 17.008 153.27 17.752 153.27 18.584V21.896C153.27 22.728 153.07 23.472 152.67 24.128C152.286 24.784 151.75 25.304 151.062 25.688C150.374 26.056 149.59 26.24 148.71 26.24ZM149.142 23.744C150.118 23.744 150.902 23.416 151.494 22.76C152.102 22.104 152.406 21.264 152.406 20.24C152.406 19.552 152.27 18.944 151.998 18.416C151.726 17.888 151.342 17.48 150.846 17.192C150.366 16.888 149.798 16.736 149.142 16.736C148.502 16.736 147.934 16.888 147.438 17.192C146.958 17.48 146.574 17.888 146.286 18.416C146.014 18.944 145.878 19.552 145.878 20.24C145.878 20.928 146.014 21.536 146.286 22.064C146.574 22.592 146.958 23.008 147.438 23.312C147.934 23.6 148.502 23.744 149.142 23.744ZM152.238 26V22.904L152.694 20.096L152.238 17.312V14.48H154.878V26H152.238ZM162.632 26.24C161.592 26.24 160.648 25.976 159.8 25.448C158.968 24.92 158.304 24.208 157.808 23.312C157.328 22.4 157.088 21.384 157.088 20.264C157.088 19.128 157.328 18.112 157.808 17.216C158.304 16.304 158.968 15.584 159.8 15.056C160.648 14.512 161.592 14.24 162.632 14.24C163.512 14.24 164.288 14.432 164.96 14.816C165.648 15.184 166.192 15.696 166.592 16.352C166.992 17.008 167.192 17.752 167.192 18.584V21.896C167.192 22.728 166.992 23.472 166.592 24.128C166.208 24.784 165.672 25.304 164.984 25.688C164.296 26.056 163.512 26.24 162.632 26.24ZM163.064 23.744C163.72 23.744 164.288 23.6 164.768 23.312C165.264 23.008 165.648 22.592 165.92 22.064C166.192 21.536 166.328 20.928 166.328 20.24C166.328 19.552 166.192 18.944 165.92 18.416C165.648 17.888 165.264 17.48 164.768 17.192C164.288 16.888 163.72 16.736 163.064 16.736C162.424 16.736 161.856 16.888 161.36 17.192C160.88 17.48 160.496 17.888 160.208 18.416C159.936 18.944 159.8 19.552 159.8 20.24C159.8 20.928 159.936 21.536 160.208 22.064C160.496 22.592 160.88 23.008 161.36 23.312C161.856 23.6 162.424 23.744 163.064 23.744ZM168.8 26H166.16V22.904L166.616 20.096L166.16 17.312V8.72H168.8V26ZM175.45 26.12L170.53 14.48H173.434L176.794 23.024H175.954L179.506 14.48H182.434L177.082 26.12H175.45ZM172.018 30.8L175.594 23.432L177.082 26.12L174.946 30.8H172.018Z" fill="#54A66A"/>
<defs>
<clipPath id="clip0_1_2808">
<rect width="28" height="25" fill="white" transform="translate(0 7)"/>
</clipPath>
</defs>
</svg>
